<svg viewBox="0 0 512 512" xmlns="http://www.w3.org/2000/svg" xmlns:xlink="http://www.w3.org/1999/xlink"><linearGradient id="a" gradientTransform="matrix(1 0 0 -1 0 -18006)" gradientUnits="userSpaceOnUse" x1="0" x2="512" y1="-18262" y2="-18262"><stop offset="0" stop-color="#00f1ff"/><stop offset=".231" stop-color="#00d8ff"/><stop offset=".5138" stop-color="#00c0ff"/><stop offset=".7773" stop-color="#00b2ff"/><stop offset="1" stop-color="#00adff"/></linearGradient><path d="m512 256c0 141.386719-114.613281 256-256 256s-256-114.613281-256-256 114.613281-256 256-256 256 114.613281 256 256zm0 0" fill="url(#a)"/><path d="m359.730469 370.53125h-224.746094c-17.355469 0-33.535156-6.769531-45.5625-19.066406-11.878906-12.148438-18.421875-28.355469-18.421875-45.636719 0-30.605469 21.558594-56.316406 50.425781-63.007813v-12.625c0-35.679687 29.023438-64.707031 64.703125-64.707031 10.113282 0 19.976563 2.378907 28.847656 6.800781 5.855469-14.046874 14.9375-26.683593 26.632813-36.792968 17.925781-15.496094 40.863281-24.03125 64.582031-24.03125 54.472656 0 98.792969 44.316406 98.792969 98.792968v9.28125c22.421875 15.324219 36.015625 40.722657 36.015625 68.28125 0 8.285157-6.714844 15-15 15s-15-6.714843-15-15c0-19.558593-10.746094-37.414062-28.050781-46.59375-4.898438-2.605468-7.964844-7.699218-7.964844-13.25v-17.71875c0-37.933593-30.863281-68.792968-68.792969-68.792968-33.617187 0-62.839844 25-67.972656 58.152344-.894531 5.75-5.027344 10.46875-10.609375 12.101562-5.585937 1.628906-11.609375-.109375-15.460937-4.46875-6.597657-7.476562-16.082032-11.761719-26.019532-11.761719-19.136718 0-34.703125 15.570313-34.703125 34.703125v25.933594c0 8.285156-6.71875 15-15 15h-.113281c-19.472656 0-35.3125 15.566406-35.3125 34.703125 0 19.460937 14.929688 34.703125 33.984375 34.703125h224.003906c.144531-.007812.289063-.011719.433594-.015625 9.089844-.1875 18-2.734375 25.769531-7.359375 7.125-4.234375 16.328125-1.894531 20.5625 5.222656 4.238282 7.117188 1.898438 16.324219-5.21875 20.558594-11.988281 7.132812-25.6875 11.121094-39.671875 11.550781-.375.03125-.753906.042969-1.132812.042969zm0 0" fill="#fff"/></svg>